<svg aria-hidden="true" style="position:absolute;width:0;height:0;overflow:hidden" xmlns="http://www.w3.org/2000/svg">
  <defs>
    <!-- Social icons -->
    <symbol id="icon-telegram" viewBox="0 0 32 32">
      <path d="M27.733 5.703c-0.529 0.176-25.577 10.101-25.68 10.176-0.171 0.123-0.4 0.576-0.399 0.785 0.003 0.347 0.323 0.807 0.649 0.931 0.079 0.029 2.011 0.319 4.293 0.644 2.281 0.324 4.204 0.601 4.269 0.616l0.12 0.028v3.265c0 2.217 0.020 3.333 0.060 3.477 0.16 0.577 0.881 0.873 1.432 0.588 0.076-0.039 0.996-0.939 2.047-1.999 1.051-1.061 1.939-1.919 1.973-1.905 0.036 0.013 1.756 1.183 3.823 2.599 2.068 1.415 3.855 2.617 3.972 2.672 0.117 0.053 0.28 0.099 0.361 0.099 0.351 0.003 0.839-0.339 0.943-0.661 0.029-0.091 0.812-4.716 1.739-10.279 1.496-8.98 1.677-10.139 1.627-10.331-0.078-0.264-0.248-0.48-0.471-0.616l-0.005-0.003c-0.187-0.096-0.587-0.143-0.753-0.087zM26.592 9.053c-0.017 0.080-0.62 3.685-1.34 8.011s-1.315 7.869-1.32 7.875c-0.009 0.008-8.971-6.112-9.921-6.776l-0.256-0.179 6.389-4.533c3.515-2.493 6.409-4.536 6.433-4.539s0.031 0.061 0.015 0.141zM20.557 10.712c-0.028 0.025-2.023 1.441-4.433 3.145l-4.381 3.101-2.472-0.349c-1.359-0.192-2.513-0.365-2.565-0.387-0.064-0.024 2.197-0.943 6.88-2.793-17.125 6.013-14.812 5.081-12.499 4.152l19.497-6.912c0.013-0.001 0.001 0.017-0.027 0.043zM13.92 20.525l0.848 0.579-1.749 1.803-0.003-1.48c-0.001-0.813 0.011-1.48 0.027-1.48s0.411 0.26 0.877 0.579z"></path>
    </symbol>
    <symbol id="icon-instagram" viewBox="0 0 32 32">
      <path d="M28.718 10.756a9.264 9.264 0 0 0-.596-3.145 6.547 6.547 0 0 0-3.743-3.737 9.42 9.42 0 0 0-3.108-.596c-1.368-.061-1.801-.078-5.273-.078s-3.916 0-5.274.078a9.418 9.418 0 0 0-3.106.596 6.541 6.541 0 0 0-3.743 3.737 9.288 9.288 0 0 0-.596 3.101c-.061 1.367-.08 1.8-.08 5.265s0 3.909.08 5.265a9.335 9.335 0 0 0 .596 3.104 6.548 6.548 0 0 0 3.744 3.735 9.37 9.37 0 0 0 3.106.639c1.369.061 1.803.079 5.274.079s3.916 0 5.274-.079a9.357 9.357 0 0 0 3.108-.595 6.555 6.555 0 0 0 3.743-3.737 9.346 9.346 0 0 0 .596-3.104c.061-1.365.08-1.798.08-5.265-.003-3.466-.003-3.906-.082-5.264zM15.99 22.531c-3.631 0-6.572-2.936-6.572-6.561s2.941-6.561 6.572-6.561c3.628 0 6.572 2.936 6.572 6.561s-2.944 6.561-6.572 6.561zm6.834-11.835a1.53 1.53 0 1 1 0-3.06 1.53 1.53 0 1 1 0 3.06z"/>
      <path d="M15.992 19.976a4.004 4.004 0 1 0 0-8.009 4.004 4.004 0 0 0 0 8.009z"/>
    </symbol>
    <symbol id="icon-facebook" viewBox="0 0 32 32">
      <path d="M16 2.72c-7.333 0-13.333 5.987-13.333 13.36 0 6.667 4.88 12.2 11.253 13.2v-9.333h-3.387v-3.867h3.387v-2.947c0-3.347 1.987-5.187 5.040-5.187 1.453 0 2.973 0.253 2.973 0.253v3.293h-1.68c-1.653 0-2.173 1.027-2.173 2.080v2.507h3.707l-0.6 3.867h-3.107v9.333c3.142-0.496 6.003-2.099 8.067-4.52s3.194-5.499 3.187-8.68c0-7.373-6-13.36-13.333-13.36z"></path>
    </symbol>
    <symbol id="icon-youtube" viewBox="0 0 32 32">
      <path d="M24.24 6c-1.36-.08-4.16-.16-8.4-.16h-.56c-4.08 0-6.8.08-8.16.24-1.84.16-3.12.64-3.84 1.28-.64.56-1.12 1.6-1.28 2.96-.08.88-.16 2.72-.16 5.52v.4c0 2.64.08 4.48.24 5.36.24 1.28.64 2.24 1.44 2.8.8.64 2.16 1.04 4.08 1.2 1.36.08 4.16.16 8.4.16h.56c4.08 0 6.8-.08 8.16-.24 1.84-.16 3.12-.64 3.84-1.28.64-.56 1.12-1.6 1.28-2.96.08-.88.16-2.72.16-5.52v-.4c0-2.64-.08-4.48-.24-5.36-.24-1.28-.64-2.24-1.44-2.8-.8-.64-2.16-1.04-4.08-1.2zm-3.12 9.84-8.8 5.28V10.56l8.8 5.28z"/>
    </symbol>
    <symbol id="icon-github" viewBox="0 0 32 32">
      <path d="M15.04.031c-.103.012-.451.047-.773.078-2.925.287-5.944 1.572-8.32 3.542A19.478 19.478 0 0 0 3.68 5.952C1.738 8.366.575 11.093.126 14.292c-.132.936-.132 3.274-.002 4.213.626 4.5 2.779 8.282 6.276 11.022.622.488 1.824 1.239 2.587 1.617.948.47 1.955.854 2.238.854.29 0 .546-.15.693-.376l.002-.003c.101-.171.106-.268.098-1.798-.005-.89-.021-1.63-.036-1.644s-.266.012-.557.058c-.61.097-1.553.11-2.015.028-1.274-.226-2.217-.896-2.698-1.917-.67-1.422-1.049-1.974-1.649-2.402-1.069-.762-1.115-1.121-.14-1.116.953.004 1.749.556 2.558 1.77.478.717.86 1.086 1.399 1.352.868.428 1.765.436 2.868.023.248-.092.311-.141.335-.257.155-.757.376-1.297.721-1.754.116-.153.21-.292.21-.307s-.057-.029-.126-.029-.4-.048-.733-.106c-3.635-.636-5.584-2.463-6.183-5.796-.165-.914-.204-2.579-.08-3.325a6.372 6.372 0 0 1 1.193-2.809l-.012.016.349-.473-.121-.434c-.093-.335-.125-.616-.142-1.234-.025-.908.056-1.516.296-2.232l.146-.435.347-.015c.844-.037 2.263.525 3.683 1.46l.358.236.553-.135c1.19-.289 1.929-.367 3.46-.367s2.269.078 3.46.368l.554.134.513-.334c1.341-.874 2.755-1.412 3.58-1.364l.293.017.148.453c.244.741.318 1.308.293 2.213-.017.62-.049.899-.143 1.237l-.123.437.25.324a6.437 6.437 0 0 1 1.172 2.383l.01.045c.248.985.232 2.758-.036 4.094-.653 3.259-2.783 5.071-6.57 5.591l-.464.063.232.3c.295.38.478.749.612 1.232.191.69.226 1.342.208 3.867-.017 2.321-.014 2.406.089 2.58.135.229.414.38.705.38.475 0 2.401-.863 3.562-1.596 3.74-2.361 6.408-6.234 7.308-10.61.257-1.247.314-1.86.313-3.394 0-1.571-.058-2.164-.34-3.493-.938-4.412-3.614-8.228-7.421-10.576A15.475 15.475 0 0 0 18.046.137l-.079-.009c-.63-.08-2.533-.146-2.926-.1z"/>
    </symbol>
    <symbol id="icon-phone" viewBox="0 0 32 32">
      <path d="M9.817 2.723c-0.972 0.144-1.845 0.466-2.621 0.934l0.032-0.018c-0.825 0.519-1.743 1.385-2.251 2.124-1.143 1.667-1.68 4.149-1.373 6.356 0.237 1.721 0.872 4.036 1.488 5.436 0.824 1.872 2.525 4.081 4.687 6.081 2.52 2.335 4.323 3.368 7.229 4.148 2.948 0.789 4.587 0.892 6.512 0.404 1.575-0.399 2.581-0.932 3.608-1.911 1.324-1.265 2.101-2.877 2.187-4.544 0.027-0.519 0.017-0.623-0.085-0.893-0.284-0.747-1.116-1.343-3.481-2.492-1.144-0.556-2.277-1.052-3.028-1.325-1.236-0.449-1.849-0.444-2.8 0.028-0.513 0.256-0.88 0.528-1.813 1.344-0.44 0.385-0.924 0.787-1.076 0.892l-0.275 0.192-0.264-0.088c-0.553-0.184-1.447-0.885-2.495-1.959-1.068-1.095-1.46-1.623-1.473-1.984-0.009-0.239 0.124-0.445 0.771-1.188 1.325-1.525 1.611-1.932 1.863-2.664 0.191-0.553 0.208-1.097 0.052-1.623-0.285-0.963-1.007-2.644-1.853-4.32-0.896-1.775-1.48-2.568-2.084-2.836-0.291-0.128-0.875-0.167-1.455-0.095zM10.428 5.82c0.857 1.489 2.264 4.688 2.189 4.984-0.037 0.147-0.501 0.751-1.084 1.409-1.552 1.753-1.931 2.676-1.612 3.925 0.223 0.872 0.687 1.581 1.86 2.844 2.129 2.291 4.039 3.376 5.456 3.1 0.66-0.128 1.269-0.508 2.415-1.503 0.823-0.716 1.256-1.060 1.451-1.155 0.16-0.077 0.195-0.073 0.587 0.067 0.724 0.256 2.021 0.825 3.123 1.369 1.309 0.648 1.801 0.935 1.801 1.053 0 0.049-0.037 0.232-0.083 0.408-0.324 1.255-1.433 2.487-2.676 2.969-0.864 0.335-1.525 0.475-2.388 0.504-0.871 0.029-1.391-0.028-2.521-0.279-2.692-0.599-4.269-1.288-5.905-2.584-1.577-1.249-3.349-3.080-4.379-4.525-0.949-1.333-1.433-2.431-1.943-4.408-0.359-1.389-0.483-2.109-0.516-2.987-0.004-0.086-0.006-0.187-0.006-0.288 0-1.039 0.24-2.023 0.668-2.898l-0.017 0.039c0.546-1.106 1.49-1.946 2.64-2.344l0.032-0.010c0.609-0.197 0.62-0.195 0.909 0.307z"></path>
    </symbol>
    <symbol id="icon-mail" viewBox="0 0 32 32">
      <path d="M4.665 4.057c-1.492 0.252-2.717 1.34-3.18 2.823l-0.125 0.4v17.44l0.125 0.4c0.41 1.308 1.42 2.318 2.699 2.72l0.029 0.008 0.4 0.125h22.773l0.4-0.125c1.308-0.41 2.318-1.42 2.72-2.699l0.008-0.029 0.125-0.4v-17.44l-0.125-0.4c-0.408-1.298-1.406-2.302-2.671-2.711l-0.029-0.008-0.428-0.135-11.227-0.008c-6.175-0.004-11.348 0.013-11.495 0.039zM27.080 6.748c0.372 0.111 0.728 0.467 0.839 0.839 0.045 0.149 0.080 0.443 0.080 0.649l-0.001 0.377-5.629 3.573c1.279-0.695-0.621 0.52-2.527 1.727l-3.299 1.952c-0.269 0.143-0.816 0.143-1.085 0-5.204-3.159-7.104-4.374-8.999-5.597l3.174 1.918-5.629-3.573-0.001-0.377c0-0.207 0.035-0.5 0.080-0.649 0.105-0.359 0.468-0.729 0.816-0.836 0.213-0.065 1.809-0.077 11.080-0.080 9.548-0.004 10.863 0.005 11.103 0.077zM9.2 15.068c2.843 1.807 5.025 3.161 5.269 3.268 0.451 0.202 0.977 0.319 1.531 0.319s1.080-0.117 1.555-0.329l-0.024 0.010c0.244-0.107 2.48-1.493 5.423-3.365-1.77 1.004-0.131-0.047 1.512-1.093l3.514-2.091c0.011 0 0.020 2.78 0.020 6.179 0 6.707 0.011 6.459-0.295 6.859-0.081 0.107-0.259 0.26-0.393 0.339l-0.245 0.144h-22.133l-0.245-0.144c-0.15-0.092-0.278-0.202-0.386-0.33l-0.002-0.002c-0.315-0.412-0.3-0.077-0.3-6.843v-6.212l0.173 0.103c0.095 0.056 2.357 1.492 5.027 3.189z"></path>
    </symbol>
    <!-- property features -->
    <symbol id="icon-rooms" viewBox="0 0 32 32">
      <path d="M12.88 1.428c-0.366 0.139-0.65 0.421-0.789 0.776l-0.003 0.009c-0.073 0.216-0.088 0.497-0.088 1.689v1.431h-4.072c-4.417 0-4.361-0.004-4.752 0.295-0.107 0.081-0.26 0.259-0.339 0.393l-0.144 0.245-0.013 9.619c-0.009 6.339 0.004 9.687 0.039 9.819 0.080 0.293 0.336 0.615 0.625 0.785l0.256 0.151 8.4 0.029 0.003 1.452c0.001 1.073 0.020 1.504 0.073 1.652 0.176 0.493 0.617 0.833 1.137 0.875 0.277 0.023 1.021-0.171 7.747-2.005 4.092-1.117 7.548-2.087 7.68-2.153 0.277-0.141 0.56-0.485 0.639-0.78 0.037-0.139 0.052-3.303 0.041-9.828l-0.013-9.623-0.161-0.261c-0.311-0.504 0.109-0.368-8.113-2.611-4.14-1.129-7.608-2.052-7.707-2.051-0.164 0.015-0.315 0.047-0.459 0.096l0.014-0.004zM20.463 5.995l6.204 1.689v16.628l-0.28 0.080c-0.588 0.169-11.659 3.181-11.688 3.181-0.017 0-0.032-5.208-0.032-11.573s0.011-11.573 0.023-11.573c0.013 0 2.611 0.705 5.773 1.568zM12 16v8h-6.667v-16h6.667v8zM18.26 13.409c-0.323 0.11-0.586 0.326-0.753 0.606l-0.003 0.006-0.144 0.245v3.475l0.161 0.263c0.236 0.394 0.66 0.653 1.145 0.653s0.909-0.259 1.142-0.647l0.003-0.006 0.161-0.263v-3.475l-0.144-0.245c-0.235-0.406-0.668-0.675-1.163-0.675-0.145 0-0.285 0.023-0.415 0.066l0.009-0.003z"></path>
    </symbol>
    <symbol id="icon-beds" viewBox="0 0 32 32">
      <path d="M7.6 4.772c-1.295 0.284-2.483 1.457-2.833 2.801-0.079 0.303-0.093 0.752-0.112 3.504l-0.023 3.157-0.303 0.169c-1.383 0.78-2.349 2.205-2.599 3.836-0.117 0.776-0.113 7.752 0.005 8.153 0.28 0.94 1.501 1.241 2.2 0.543 0.341-0.341 0.355-0.399 0.384-1.656 0.015-0.631 0.047-1.176 0.069-1.213 0.035-0.053 2.416-0.067 11.612-0.067 11.383 0 11.569 0.001 11.624 0.103 0.032 0.061 0.055 0.536 0.056 1.16 0.001 1.181 0.033 1.324 0.377 1.667 0.708 0.709 1.925 0.405 2.209-0.551 0.115-0.387 0.116-7.384 0.001-8.139-0.122-0.812-0.41-1.538-0.827-2.171l0.012 0.020c-0.464-0.691-1.061-1.257-1.759-1.671l-0.025-0.014-0.303-0.169-0.023-3.157c-0.019-2.752-0.033-3.201-0.112-3.504-0.364-1.393-1.564-2.54-2.956-2.823-0.449-0.091-16.256-0.071-16.677 0.021zM24.123 7.535c0.107 0.081 0.261 0.236 0.343 0.343 0.145 0.191 0.148 0.209 0.165 1.041l0.017 0.847-0.204-0.103c-0.588-0.3-0.557-0.297-3.753-0.317-3.383-0.020-3.441-0.015-4.224 0.38l-0.467 0.235-0.467-0.235c-0.759-0.383-0.831-0.391-4.040-0.391-3.049 0-3.251 0.016-3.844 0.287l-0.289 0.133v-0.776c0-0.859 0.036-0.999 0.336-1.287 0.372-0.36-0.323-0.333 8.361-0.319l7.871 0.013 0.195 0.148zM14.331 12.104c0.275 0.168 0.336 0.349 0.336 0.987v0.563h-6.347l0.003-0.52c0.004-0.629 0.072-0.851 0.312-1.012l0.181-0.121h2.672c2.556 0 2.68 0.005 2.843 0.104zM23.365 12.121c0.24 0.161 0.308 0.383 0.312 1.012l0.003 0.52h-6.347v-0.563c0-0.637 0.061-0.819 0.336-0.987 0.163-0.099 0.287-0.104 2.843-0.104h2.672l0.181 0.121zM25.413 16.375c1.093 0.153 2.059 1.119 2.212 2.212 0.029 0.205 0.053 0.907 0.053 1.56l0.001 1.187h-23.36l0.001-1.187c0-0.653 0.024-1.355 0.053-1.56 0.149-1.065 1.121-2.059 2.159-2.208 0.459-0.065 18.413-0.069 18.88-0.004z"></path>
    </symbol>
    <symbol id="icon-baths" viewBox="0 0 32 32">
      <path d="M29.333 16h-22.667v-7.453c-0.004-0.48 0.123-0.952 0.367-1.365s0.597-0.752 1.019-0.98c0.468-0.253 1.001-0.359 1.531-0.307-0.27 0.816-0.308 1.691-0.111 2.527s0.622 1.602 1.227 2.212l1.413 1.413c0.124 0.124 0.271 0.222 0.433 0.289s0.335 0.102 0.511 0.102c0.175 0 0.349-0.035 0.511-0.102s0.309-0.165 0.433-0.289l4.713-4.713c0.25-0.25 0.39-0.589 0.39-0.943s-0.14-0.693-0.39-0.943l-1.413-1.413c-0.787-0.784-1.828-1.26-2.935-1.344s-2.209 0.231-3.105 0.887c-0.808-0.316-1.68-0.429-2.542-0.331s-1.686 0.406-2.402 0.896c-0.716 0.49-1.301 1.147-1.704 1.915s-0.614 1.622-0.612 2.489v7.453h-1.333c-0.354 0-0.693 0.141-0.943 0.391s-0.391 0.589-0.391 0.943c0 0.354 0.14 0.693 0.391 0.943s0.589 0.391 0.943 0.391h1.333v4c0.002 0.825 0.26 1.628 0.738 2.301s1.151 1.18 1.929 1.454v1.579c0 0.354 0.14 0.693 0.391 0.943s0.589 0.391 0.943 0.391 0.693-0.14 0.943-0.391c0.25-0.25 0.391-0.589 0.391-0.943v-1.333h13.333v1.333c0 0.354 0.141 0.693 0.391 0.943s0.589 0.391 0.943 0.391 0.693-0.14 0.943-0.391c0.25-0.25 0.391-0.589 0.391-0.943v-1.579c0.778-0.274 1.452-0.782 1.929-1.454s0.735-1.476 0.738-2.301v-4h1.333c0.354 0 0.693-0.14 0.943-0.391s0.391-0.589 0.391-0.943-0.141-0.693-0.391-0.943c-0.25-0.25-0.589-0.391-0.943-0.391zM12.587 5.92c0.375-0.375 0.883-0.585 1.413-0.585s1.038 0.21 1.413 0.585l0.472 0.471-2.828 2.828-0.472-0.471c-0.186-0.186-0.333-0.406-0.434-0.649s-0.152-0.503-0.152-0.766c0-0.263 0.052-0.523 0.152-0.766s0.248-0.463 0.434-0.649l0.001 0.001zM25.333 22.667c0 0.354-0.141 0.693-0.391 0.943s-0.589 0.391-0.943 0.391h-16c-0.354 0-0.693-0.14-0.943-0.391s-0.391-0.589-0.391-0.943v-4h18.667v4z"></path>
    </symbol>
    <symbol id="icon-garages" viewBox="0 0 32 32">
      <path d="M2.347 5.383c-0.396 0.124-0.711 0.404-0.879 0.766l-0.004 0.009c-0.054 0.152-0.085 0.327-0.085 0.509s0.031 0.357 0.088 0.52l-0.003-0.011c0.192 0.46 0.729 0.823 1.221 0.824 0.188 0 0.251 0.019 0.229 0.067-0.72 1.619-1.272 3.339-1.497 4.667-0.115 0.677-0.123 7.595-0.008 8.227 0.185 1.028 0.835 1.783 1.925 2.237 0.449 0.187 1.532 0.508 1.899 0.563l0.247 0.037 0.144 0.364c0.425 1.085 1.548 2.079 2.696 2.385 0.543 0.144 1.615 0.128 2.133-0.032 1.088-0.331 1.963-1.078 2.455-2.052l0.011-0.023 0.219-0.44h5.744l0.132 0.3c0.331 0.745 1.112 1.563 1.849 1.932 0.655 0.327 1.012 0.407 1.831 0.407 0.575 0 0.761-0.021 1.093-0.124 1.086-0.33 1.959-1.075 2.451-2.045l0.011-0.023 0.216-0.433 0.915-0.028c0.988-0.029 1.316-0.092 1.887-0.357 0.633-0.295 1.080-0.859 1.273-1.607 0.072-0.277 0.093-0.705 0.113-2.273 0.033-2.565-0.037-3.177-0.465-4.101-0.349-0.756-0.856-1.329-1.599-1.809-0.479-0.309-0.937-0.523-1.996-0.927-0.532-0.201-0.946-0.382-1.35-0.58l0.094 0.042c-0.712-0.371-0.803-0.485-2.82-3.589-1.319-2.031-2.541-2.972-4.312-3.324-0.433-0.087-1.071-0.095-8.097-0.107-4.195-0.007-7.687 0.007-7.76 0.031zM10.667 10v2h-3.173c-1.745 0-3.173-0.020-3.173-0.043 0-0.084 0.436-1.367 0.647-1.899 0.116-0.296 0.38-0.88 0.585-1.299l0.373-0.76h4.741v2zM17.867 8.105c0.685 0.147 1.323 0.607 1.896 1.367 0.252 0.336 0.956 1.419 1.511 2.328l0.123 0.2h-8.063v-4.011l2.12 0.027c1.307 0.017 2.232 0.052 2.413 0.089zM24.277 14.832c0.181 0.091 0.727 0.321 1.212 0.511 2.080 0.813 2.356 1.073 2.46 2.325 0.075 0.911 0.065 3.523-0.013 3.601-0.043 0.043-0.291 0.064-0.764 0.064h-0.701l-0.219-0.44c-0.893-1.796-2.901-2.627-4.871-2.016-0.925 0.288-1.956 1.227-2.368 2.157l-0.132 0.3-5.769-0.028-0.112-0.267c-0.319-0.753-1.085-1.56-1.849-1.944-1.167-0.589-2.699-0.552-3.784 0.089-0.629 0.372-1.357 1.144-1.64 1.739-0.092 0.192-0.107 0.201-0.285 0.169-0.329-0.060-1.143-0.348-1.281-0.453l-0.133-0.1-0.015-2.937-0.015-2.936h19.952l0.328 0.165zM9.999 21.516c1.108 0.649 0.752 2.336-0.523 2.468-1.168 0.12-1.896-1.261-1.144-2.173 0.127-0.152 0.44-0.361 0.628-0.417 0.301-0.091 0.767-0.036 1.039 0.123zM23.332 21.516c1.108 0.649 0.752 2.336-0.523 2.468-1.189 0.123-1.903-1.283-1.117-2.203 0.384-0.449 1.121-0.569 1.64-0.265z"></path>
    </symbol>
    <symbol id="icon-area" viewBox="0 0 32 32">
      <path d="M4 6.667v18.667c0 1.471 1.196 2.667 2.667 2.667h18.667c1.471 0 2.667-1.196 2.667-2.667v-18.667c0-1.471-1.196-2.667-2.667-2.667h-18.667c-1.471 0-2.667 1.196-2.667 2.667zM25.336 25.333h-18.669v-18.667h18.667l0.003 18.667z"></path>
      <path d="M20 16h2.667v-6.667h-6.667v2.667h4v4zM16 20h-4v-4h-2.667v6.667h6.667v-2.667z"></path>
    </symbol>
    <!-- Other -->
    <symbol id="icon-logo" viewBox="0 0 32 32">
      <path d="M15.292 0.037c-0.052 0.013-1.072 0.792-2.266 1.731-1.497 1.176-2.203 1.764-2.271 1.89-0.202 0.374 0.043 0.823 0.486 0.894l0.226 0.036v2.082c0 2.285 0.004 2.313 0.318 2.476 0.127 0.066 0.397 0.081 1.444 0.081 1.779 0 1.717 0.045 1.757-1.298 0.026-0.864 0.032-0.902 0.153-1 0.176-0.142 0.448-0.131 0.631 0.027l0.149 0.128 0.027 0.916 0.027 0.916 0.174 0.156 0.174 0.155h1.325c1.279 0 1.331-0.004 1.472-0.116 0.286-0.225 0.294-0.295 0.294-2.491v-2.023l0.224-0.038c0.562-0.095 0.762-0.74 0.349-1.127-0.39-0.365-4.123-3.29-4.286-3.358-0.179-0.075-0.24-0.081-0.408-0.037zM28.41 1.445c-0.623 0.147-1.275 0.664-1.551 1.23-0.567 1.163-0.069 2.534 1.127 3.1 0.338 0.16 0.397 0.171 0.95 0.171 0.572 0 0.601-0.006 0.987-0.197 0.508-0.251 0.856-0.599 1.107-1.107 0.189-0.382 0.197-0.419 0.197-0.963 0-0.545-0.007-0.58-0.199-0.968-0.484-0.98-1.581-1.511-2.618-1.267zM16.496 2.453c0.576 0.455 1.047 0.845 1.049 0.867s-0.972 0.040-2.163 0.040c-1.48 0-2.159-0.018-2.146-0.056 0.030-0.089 2.091-1.706 2.155-1.691 0.032 0.008 0.529 0.386 1.105 0.84zM29.484 2.841c0.28 0.186 0.41 0.463 0.409 0.876-0.001 0.28-0.025 0.364-0.16 0.555-0.299 0.422-0.784 0.539-1.254 0.302-0.319-0.161-0.496-0.478-0.495-0.889 0-0.332 0.090-0.544 0.325-0.767 0.302-0.287 0.809-0.32 1.177-0.077zM17.961 6.28l-0.014 1.694h-0.747l-0.032-0.565c-0.025-0.445-0.061-0.627-0.168-0.861-0.173-0.377-0.501-0.706-0.885-0.886-0.252-0.118-0.375-0.141-0.755-0.141-0.385 0-0.498 0.022-0.75 0.146-0.362 0.178-0.651 0.459-0.834 0.804l-0.005 0.010c-0.117 0.226-0.143 0.36-0.168 0.88l-0.030 0.614h-0.853l-0.014-1.694-0.014-1.693h5.283l-0.014 1.693zM2.107 6.045c-0.556 0.185-0.958 0.51-1.211 0.977-0.521 0.963-0.107 2.179 0.926 2.721 0.256 0.135 0.338 0.15 0.818 0.15 0.467 0 0.571-0.017 0.836-0.141 0.411-0.198 0.74-0.512 0.951-0.9l0.005-0.011c0.171-0.316 0.181-0.362 0.181-0.867 0-0.468-0.018-0.571-0.143-0.84-0.184-0.393-0.574-0.781-0.975-0.971-0.378-0.179-1.038-0.235-1.388-0.118zM21.284 7.906c-0.398 0.388-1.279 1.255-1.957 1.926l-1.233 1.22-0.394-0.136c-0.973-0.335-1.85-0.32-2.624 0.047-0.171 0.081-0.579 0.336-0.907 0.567-0.506 0.358-0.6 0.406-0.623 0.323-0.015-0.054-0.919-0.979-2.008-2.056l-1.982-1.957h-0.247c-0.136 0-0.312 0.034-0.392 0.076s-2.033 1.968-4.341 4.28c-4.478 4.486-4.354 4.348-4.212 4.711 0.058 0.149 3.79 3.893 3.954 3.967 0.058 0.026 0.116 0.086 0.13 0.134s0.101 0.337 0.195 0.646l0.171 0.56 0.532 0.542c0.293 0.298 0.523 0.566 0.513 0.595s-0.653 0.666-1.427 1.416c-0.775 0.75-1.477 1.466-1.561 1.592-0.305 0.457-0.402 1.209-0.23 1.787 0.38 1.278 2.031 1.823 3.181 1.049 0.258-0.174 0.288-0.183 0.337-0.098 0.604 1.040 1.821 1.435 2.848 0.925l0.369-0.183 0.098 0.183c0.16 0.296 0.554 0.651 0.905 0.816 0.814 0.381 1.652 0.287 2.342-0.262l0.269-0.214 0.102 0.21c0.149 0.307 0.662 0.757 1.026 0.902 0.248 0.098 0.413 0.123 0.841 0.124 0.869 0.003 0.88-0.005 2.749-1.869l1.576-1.572 0.371 0.034c0.828 0.077 1.687-0.347 2.087-1.032 0.136-0.232 0.137-0.232 0.25-0.132 0.569 0.507 1.518 0.627 2.25 0.284 0.873-0.409 1.358-1.271 1.205-2.141-0.094-0.535-0.276-0.856-0.775-1.371l-0.454-0.468 2.159-2.187 0.097-0.459 0.096-0.459 0.303 0.006c0.265 0.005 0.329-0.015 0.514-0.164 0.117-0.094 1.010-0.97 1.986-1.948 1.545-1.548 1.779-1.804 1.807-1.974 0.017-0.107 0.016-0.257-0.003-0.333-0.031-0.122-2.717-2.82-7.477-7.509l-1.123-1.107h-0.57l-0.725 0.706zM3.106 7.508c0.31 0.309 0.242 0.866-0.129 1.057-0.234 0.121-0.602 0.074-0.776-0.1-0.163-0.163-0.22-0.546-0.119-0.791 0.162-0.392 0.709-0.482 1.023-0.167zM26.004 12.469l3.618 3.589-2.629 2.629-0.283-0.261c-0.156-0.144-1.811-1.776-3.679-3.627l-3.396-3.366 1.313-1.313c0.806-0.806 1.337-1.299 1.376-1.276 0.034 0.020 1.691 1.652 3.68 3.626zM11.947 11.996c0 0.020-0.078 0.111-0.173 0.203-0.137 0.133-0.261 0.185-0.6 0.254-1.704 0.348-2.907 1.224-2.907 2.117 0 0.084 0.049 0.297 0.108 0.474l0.109 0.322-0.158 0.196c-0.087 0.108-0.977 1.013-1.978 2.010l-1.819 1.813-0.384-0.402c-0.211-0.221-0.785-0.823-1.276-1.338l-0.892-0.936 7.324-7.315 1.323 1.282c0.728 0.706 1.323 1.299 1.323 1.319zM17.007 12.109c0.215 0.060 0.532 0.168 0.704 0.24 0.348 0.147 0.597 0.164 0.793 0.055 0.129-0.072 0.196-0.008 3.552 3.322l3.421 3.394-0.176 0.678c-0.096 0.373-0.2 0.721-0.228 0.773s-0.45 0.491-0.936 0.975l-0.883 0.879-0.33-0.319c-0.181-0.175-1.939-1.911-3.906-3.857s-3.648-3.575-3.735-3.62c-0.243-0.126-0.75-0.058-1.608 0.218-1.145 0.367-2.106 0.508-2.776 0.406-1.486-0.225-1.613-0.923-0.251-1.38 0.327-0.109 0.96-0.232 1.724-0.333 1.347-0.178 1.657-0.283 2.347-0.796 1.001-0.745 1.445-0.868 2.287-0.634zM26.561 15.347c-0.548 0.275-0.567 1.056-0.032 1.299 0.589 0.267 1.15-0.047 1.15-0.646 0-0.58-0.585-0.921-1.118-0.653zM17.439 18.577c1.453 1.446 3.545 3.518 4.651 4.605 1.321 1.298 2.023 2.025 2.046 2.119 0.101 0.402-0.181 0.839-0.591 0.916-0.394 0.074-0.563-0.031-1.466-0.915l-0.841-0.823h-0.265c-0.305 0-0.517 0.133-0.626 0.391-0.082 0.194-0.042 0.356 0.183 0.749 0.296 0.516 0.171 0.967-0.324 1.172-0.435 0.18-0.561 0.12-1.325-0.629-0.793-0.778-0.866-0.83-1.15-0.83-0.171 0-0.264 0.038-0.422 0.175-0.173 0.149-0.206 0.214-0.228 0.442s-0.006 0.291 0.105 0.425c0.198 0.237 0.254 0.369 0.254 0.599 0 0.293-0.184 0.545-0.493 0.672-0.436 0.181-0.568 0.107-1.564-0.881-0.941-0.933-1.067-1.011-1.441-0.887-0.233 0.077-0.448 0.351-0.448 0.572 0 0.078 0.087 0.284 0.192 0.459 0.324 0.535 0.263 0.928-0.192 1.237-0.195 0.133-0.476 0.153-0.704 0.051-0.079-0.035-1.639-1.552-3.467-3.371l-3.323-3.307-0.203-0.64-0.203-0.64 1.996-2.005c1.956-1.965 1.999-2.004 2.13-1.935 0.653 0.342 1.912 0.409 3.079 0.162 0.603-0.129 1.042-0.24 1.475-0.363l-0.168 0.041c-0.629 0.148-0.407 0.084-0.184 0.020l0.85-0.208c0.014-0.003 1.214 1.177 2.667 2.624zM4.259 16.081c-0.166 0.090-0.366 0.472-0.364 0.696 0.002 0.249 0.185 0.593 0.365 0.687 0.24 0.124 0.706 0.109 0.881-0.028 0.2-0.157 0.299-0.377 0.299-0.662 0-0.485-0.291-0.775-0.773-0.771-0.147 0.001-0.331 0.036-0.408 0.079zM0.326 20.608c-0.361 0.2-0.367 0.844-0.011 1.084 0.116 0.078 0.292 0.097 1.065 0.113 1.197 0.025 1.473-0.009 1.67-0.206 0.13-0.13 0.151-0.193 0.151-0.452 0-0.262-0.021-0.322-0.156-0.457l-0.156-0.156-1.218 0.002c-0.908 0.001-1.25 0.020-1.345 0.072zM0.314 22.534c-0.15 0.082-0.314 0.371-0.314 0.556 0 0.208 0.149 0.475 0.313 0.56 0.231 0.12 2.336 0.123 2.566 0.004 0.216-0.111 0.32-0.283 0.32-0.524 0-0.264-0.135-0.493-0.352-0.595-0.24-0.114-2.325-0.115-2.534-0.001zM8.44 25.907l1.533 1.533-0.751 0.715c-0.717 0.682-0.763 0.716-1.006 0.739-0.447 0.043-0.803-0.212-0.882-0.631-0.029-0.154 0.002-0.257 0.182-0.596 0.247-0.466 0.257-0.534 0.113-0.771-0.116-0.196-0.327-0.325-0.567-0.325-0.031 0-0.062 0.002-0.093 0.006l0.003-0c-0.186 0.025-0.308 0.125-1.046 0.854-0.669 0.661-0.879 0.838-1.051 0.884-0.061 0.017-0.132 0.026-0.204 0.026-0.336 0-0.624-0.206-0.745-0.499l-0.002-0.005c-0.179-0.448-0.171-0.459 1.428-2.033 0.796-0.784 1.472-1.426 1.501-1.427s0.744 0.688 1.587 1.532zM26.256 27.197c-0.115 0.071-0.191 0.175-0.235 0.321-0.091 0.303 0.006 0.611 0.235 0.752 0.164 0.101 0.266 0.104 2.743 0.091l2.572-0.014 0.148-0.148c0.128-0.128 0.148-0.19 0.148-0.465s-0.020-0.337-0.148-0.465l-0.148-0.148-2.572-0.014c-2.476-0.013-2.579-0.010-2.743 0.091zM11.26 28.776c0.215 0.222 0.471 0.452 0.569 0.513 0.173 0.107 0.175 0.113 0.081 0.216-0.237 0.262-0.642 0.329-0.974 0.162-0.387-0.195-0.501-0.699-0.245-1.086 0.075-0.114 0.147-0.207 0.158-0.207s0.196 0.181 0.411 0.403zM16.033 29.011c0.194 0.060 0.391 0.109 0.438 0.109 0.1 0-0.934 0.992-1.184 1.137-0.215 0.124-0.601 0.096-0.821-0.060-0.195-0.139-0.333-0.415-0.333-0.664 0-0.155 0.034-0.208 0.212-0.331 0.226-0.157 0.411-0.375 0.555-0.655l0.090-0.174 0.346 0.265c0.224 0.172 0.469 0.303 0.697 0.374zM26.174 29.222c-0.157 0.14-0.174 0.184-0.174 0.452 0 0.264 0.019 0.316 0.174 0.471l0.174 0.175h2.551c2.778 0 2.761 0.002 2.918-0.302 0.152-0.294 0.069-0.68-0.189-0.883-0.062-0.049-0.721-0.065-2.682-0.067l-2.599-0.002-0.174 0.156z"></path>
    </symbol>
    <symbol id="icon-heart" viewBox="0 0 32 32">
      <path d="M8.96 2.488a8.613 8.613 0 0 0-3.673 1.008l.046-.023C2.794 4.784 1.085 7.18.634 10.053c-.087.549-.087 2.011 0 2.56a9.023 9.023 0 0 0 1.747 4.129l-.016-.022c.4.537 12.481 12.651 12.86 12.896.252.161.292.171.775.171s.523-.009.775-.171c.379-.245 12.46-12.359 12.86-12.896a8.944 8.944 0 0 0 1.724-4.056l.006-.051c.037-.235.067-.811.067-1.28 0-.881-.057-1.397-.239-2.133-.855-3.479-3.791-6.131-7.353-6.641-.619-.088-1.997-.079-2.588.02-1.883.311-3.471 1.103-4.812 2.401l-.44.425-.44-.425c-1.769-1.712-4.184-2.624-6.6-2.492zm1.92 3.243c1.207.335 1.821.733 3.173 2.057.557.545 1.109 1.051 1.227 1.121.187.115.277.131.72.131.441 0 .533-.016.72-.129.117-.071.657-.565 1.2-1.097 1.053-1.035 1.441-1.341 2.115-1.675.911-.449 1.759-.62 2.845-.575 1.765.073 3.283.879 4.385 2.329.335.439.745 1.279.915 1.869a6.022 6.022 0 0 1-.011 3.185l.01-.042a6.86 6.86 0 0 1-.942 1.916l.014-.022c-.153.205-2.748 2.845-5.765 5.867l-5.485 5.493-5.485-5.493c-3.017-3.021-5.612-5.661-5.765-5.867a6.633 6.633 0 0 1-.521-.867l-.018-.039c-1.108-2.277-.664-4.907 1.128-6.687a5.79 5.79 0 0 1 2.702-1.512l.04-.008c.5-.125.588-.132 1.467-.113.693.015.908.04 1.333.157z"/>
    </symbol>
    <symbol id="icon-heart-filled" viewBox="0 0 32 32">
      <path d="M8.08 2.587a8.845 8.845 0 0 0-5.038 2.617l-.003.003C1.402 6.91.579 8.96.579 11.334c0 1.975.543 3.648 1.705 5.253.373.515 12.744 12.917 13.049 13.083.307.167 1.028.167 1.333 0 .304-.164 12.615-12.507 13.023-13.056 1.171-1.573 1.732-3.287 1.732-5.28 0-1.437-.292-2.719-.901-3.947-.873-1.761-2.5-3.323-4.28-4.108a8.298 8.298 0 0 0-3.522-.772l-.124.001h.006-.091a8.605 8.605 0 0 0-4.546 1.29L18 3.777c-.463.276-.889.605-1.479 1.144l-.519.473-.585-.531c-1.395-1.267-2.871-1.979-4.711-2.273-.624-.1-2.008-.101-2.627-.003z"/>
    </symbol>
    <symbol id="icon-eye" viewBox="0 0 32 32">
      <path d="M14.323 3.761c-3.436 0.397-6.505 1.898-9.226 4.513-0.677 0.651-1.277 1.322-2.024 2.261-1.644 2.068-2.079 3.213-2.079 5.468s0.434 3.399 2.079 5.468c3.226 4.060 6.87 6.259 11.223 6.776 1.291 0.152 3.241 0.083 4.495-0.16 3.903-0.757 7.19-2.901 10.143-6.616 1.645-2.069 2.079-3.21 2.079-5.468s-0.434-3.399-2.079-5.468c-2.949-3.71-6.289-5.884-10.157-6.612-1.266-0.238-3.188-0.307-4.454-0.162zM17.871 7.011c2.093 0.358 3.988 1.224 5.761 2.632 1.549 1.234 3.692 3.801 3.998 4.791 0.24 0.778 0.24 2.359 0 3.137-0.203 0.658-1.387 2.26-2.581 3.489-2.263 2.33-4.868 3.686-7.705 4.012-0.592 0.067-2.087 0.067-2.679 0-2.837-0.326-5.446-1.684-7.705-4.012-1.207-1.243-2.376-2.825-2.581-3.489-0.24-0.778-0.24-2.359 0-3.137 0.306-0.989 2.463-3.575 3.998-4.791 2.007-1.591 4.002-2.428 6.508-2.729 0.44-0.054 2.5 0.013 2.988 0.096zM14.825 10.503c-2.788 0.607-4.697 3.221-4.415 6.044 0.133 1.312 0.693 2.495 1.623 3.426 0.889 0.894 2.078 1.489 3.403 1.621l0.023 0.002c2.685 0.269 5.195-1.442 5.953-4.060 0.131-0.46 0.206-0.988 0.206-1.533s-0.075-1.073-0.216-1.574l0.010 0.041c-0.572-1.918-2.073-3.389-3.969-3.908l-0.040-0.009c-0.603-0.162-1.943-0.187-2.578-0.050zM17.037 13.809c0.479 0.235 0.925 0.682 1.16 1.16 0.174 0.355 0.179 0.382 0.179 1.034s-0.005 0.679-0.178 1.032c-0.357 0.714-1.024 1.227-1.821 1.366l-0.015 0.002c-1.035 0.16-2.077-0.398-2.556-1.368-0.173-0.354-0.178-0.381-0.178-1.032 0-0.647 0.005-0.68 0.171-1.019 0.306-0.619 0.797-1.063 1.424-1.287 0.211-0.075 0.398-0.093 0.859-0.082 0.544 0.013 0.615 0.027 0.952 0.194z"></path>
    </symbol>
    <symbol id="icon-location" viewBox="0 0 32 32">
      <path d="M14.933 1.391c-4.883 0.464-9.072 4.288-10.047 9.169-0.215 1.077-0.275 2.555-0.144 3.573 0.288 2.245 1.237 4.392 2.831 6.4 0.532 0.671 2.163 2.315 2.907 2.931 1.427 1.18 3.66 2.723 4.271 2.951 0.877 0.327 1.579 0.336 2.423 0.031 0.375-0.135 0.593-0.263 1.572-0.916 5.135-3.425 7.855-7.017 8.484-11.209 0.105-0.699 0.119-2.239 0.027-2.907-0.365-2.643-1.473-4.885-3.335-6.748-2.393-2.393-5.676-3.589-8.988-3.275zM17.28 4.111c3.711 0.589 6.715 3.644 7.279 7.403 0.152 1.007 0.083 2.429-0.165 3.393-0.713 2.785-2.903 5.472-6.496 7.975-1.225 0.853-1.675 1.119-1.896 1.119-0.225 0-0.785-0.336-2.004-1.201-2.82-2.001-4.703-4.008-5.707-6.079-0.66-1.363-0.931-2.508-0.931-3.947 0-3.369 1.896-6.377 4.987-7.907 0.969-0.479 1.736-0.688 3.067-0.836 0.289-0.032 1.481 0.019 1.867 0.080zM15.075 7.412c-1.544 0.28-2.988 1.315-3.739 2.679-1.848 3.363 0.359 7.524 4.176 7.876 0.15 0.015 0.323 0.024 0.499 0.024 1.495 0 2.845-0.623 3.803-1.624l0.002-0.002c0.696-0.728 1.069-1.388 1.344-2.376 0.127-0.46 0.144-0.616 0.144-1.321s-0.017-0.861-0.144-1.321c-0.428-1.545-1.356-2.697-2.752-3.419-0.779-0.401-1.277-0.523-2.248-0.543-0.096-0.004-0.21-0.006-0.323-0.006-0.268 0-0.534 0.012-0.796 0.037l0.034-0.003zM16.808 10.132c1.533 0.473 2.288 2.256 1.572 3.707-0.425 0.881-1.311 1.478-2.336 1.478-0.015 0-0.031-0-0.046-0l0.002 0c-0.013 0-0.029 0-0.044 0-1.027 0-1.914-0.599-2.33-1.466l-0.007-0.015c-0.17-0.342-0.27-0.744-0.27-1.17 0-1.178 0.763-2.177 1.822-2.53l0.019-0.005c0.427-0.136 1.175-0.135 1.619 0.003zM7.413 22.791c-1.183 0.432-1.955 0.875-2.533 1.449-0.465 0.461-0.671 0.791-0.799 1.281-0.36 1.387 0.472 2.641 2.336 3.52 3.997 1.885 12.333 2.188 17.46 0.635 2.429-0.737 3.7-1.667 4.045-2.963 0.357-1.345-0.48-2.62-2.291-3.483-0.839-0.4-1.403-0.577-1.729-0.545-1.507 0.148-1.668 2.152-0.212 2.623 0.389 0.125 1.208 0.529 1.403 0.691l0.16 0.133-0.133 0.107c-0.611 0.488-2.407 1.087-4.16 1.384-2.971 0.503-6.949 0.503-9.92 0-1.753-0.297-3.549-0.896-4.16-1.384l-0.133-0.107 0.16-0.136c0.188-0.159 1-0.557 1.403-0.688 0.381-0.124 0.697-0.376 0.856-0.683 0.589-1.145-0.505-2.291-1.752-1.835z"></path>
    </symbol>
    <symbol id="icon-chevron-left" viewBox="0 0 32 32">
      <path d="M24.771 31.438c-0.75 0.75-1.965 0.75-2.715 0l-14.080-14.080c-0.75-0.75-0.75-1.965 0-2.715l14.080-14.080c0.75-0.75 1.965-0.75 2.715 0s0.75 1.966 0 2.715l-12.722 12.722 12.722 12.722c0.75 0.75 0.75 1.965 0 2.715z"></path>
    </symbol>
    <symbol id="icon-chevron-right" viewBox="0 0 32 32">
      <path d="M7.229 0.562c0.75-0.75 1.965-0.75 2.715 0l14.080 14.080c0.75 0.75 0.75 1.965 0 2.715l-14.080 14.080c-0.75 0.75-1.965 0.75-2.715 0s-0.75-1.965 0-2.715l12.722-12.722-12.722-12.722c-0.75-0.75-0.75-1.965 0-2.715z"></path>
    </symbol>
    <symbol id="icon-arrow" viewBox="0 0 32 32">
      <path d="M12.727 6.264c-0.326 0.129-0.587 0.366-0.742 0.667l-0.004 0.008c-0.133 0.253-0.149 0.331-0.128 0.635 0.028 0.408 0.127 0.623 0.419 0.905 0.4 0.388 0.22 0.375 4.844 0.375h4.137l-7.424 7.427c-5.812 5.813-7.448 7.479-7.532 7.667-0.308 0.687 0.045 1.513 0.764 1.788 0.292 0.111 0.768 0.087 1.051-0.055 0.1-0.049 3.523-3.431 7.608-7.512l7.427-7.42v4.136c0 4.624-0.013 4.444 0.375 4.844 0.317 0.327 0.497 0.403 0.959 0.404 0.344 0.001 0.436-0.020 0.656-0.149 0.291-0.171 0.545-0.492 0.625-0.787 0.035-0.132 0.049-2.256 0.040-6.165-0.015-5.793-0.017-5.968-0.117-6.124-0.137-0.225-0.317-0.411-0.531-0.549l-0.007-0.004-0.213-0.14-6-0.012c-5.008-0.009-6.035 0.001-6.207 0.063z"></path>
    </symbol>
    <symbol id="icon-order" viewBox="0 0 32 32">
      <path d="M2.407 3.040c-0.521 0.123-0.844 0.692-0.699 1.232 0.079 0.291 0.384 0.604 0.667 0.681 0.301 0.084 26.949 0.084 27.251 0 0.159-0.058 0.295-0.144 0.408-0.255l-0 0c0.182-0.179 0.294-0.428 0.294-0.703 0-0.464-0.32-0.853-0.752-0.957l-0.007-0.001c-0.26-0.060-26.908-0.057-27.163 0.003zM2.407 8.373c-0.521 0.123-0.844 0.692-0.699 1.232 0.079 0.291 0.384 0.604 0.667 0.681 0.301 0.084 26.949 0.084 27.251 0 0.159-0.058 0.295-0.144 0.408-0.255l-0 0c0.182-0.179 0.294-0.428 0.294-0.703 0-0.464-0.32-0.853-0.752-0.957l-0.007-0.001c-0.26-0.060-26.908-0.057-27.163 0.003zM2.407 13.707c-0.521 0.123-0.844 0.692-0.699 1.232 0.079 0.291 0.384 0.604 0.667 0.681 0.301 0.084 26.949 0.084 27.251 0 0.159-0.058 0.295-0.144 0.408-0.255l-0 0c0.182-0.179 0.294-0.428 0.294-0.703 0-0.464-0.32-0.853-0.752-0.957l-0.007-0.001c-0.26-0.060-26.908-0.057-27.163 0.003zM2.407 19.040c-0.521 0.123-0.844 0.692-0.699 1.232 0.079 0.291 0.384 0.604 0.667 0.681 0.301 0.084 26.949 0.084 27.251 0 0.159-0.058 0.295-0.144 0.408-0.255l-0 0c0.182-0.179 0.294-0.428 0.294-0.703 0-0.464-0.32-0.853-0.752-0.957l-0.007-0.001c-0.26-0.060-26.908-0.057-27.163 0.003zM10.7 24.385c-0.651 0.172-0.917 1.071-0.468 1.577 0.281 0.32 5.256 4.244 5.473 4.319 0.089 0.030 0.192 0.047 0.298 0.047 0.175 0 0.339-0.047 0.481-0.129l-0.005 0.002c0.073-0.047 1.299-1.016 2.724-2.155 2.663-2.128 2.669-2.133 2.795-2.589 0.003-0.030 0.005-0.065 0.005-0.1 0-0.096-0.014-0.188-0.039-0.276l0.002 0.007c-0.121-0.433-0.512-0.746-0.976-0.746-0.085 0-0.168 0.011-0.247 0.030l0.007-0.001c-0.168 0.045-0.78 0.507-2.487 1.871l-2.264 1.811-2.263-1.809c-2.509-2.007-2.499-2.001-3.037-1.859z"></path>
    </symbol>
    <symbol id="icon-filters" viewBox="0 0 32 32">
      <path d="M22.528 0.613c-0.727 0.157-1.473 0.701-1.808 1.316-0.203 0.373-0.292 0.747-0.293 1.231v0.413h-19.113l-0.233 0.113c-0.356 0.172-0.52 0.457-0.52 0.904 0 0.321 0.017 0.381 0.164 0.564 0.089 0.113 0.257 0.253 0.373 0.312 0.207 0.105 0.329 0.107 9.769 0.121l9.56 0.013v0.388c0 0.749 0.264 1.376 0.772 1.836 0.573 0.517 1.208 0.767 1.975 0.775 0.82 0.008 1.464-0.219 2.015-0.709 0.581-0.519 0.799-0.971 0.864-1.797l0.039-0.488 2.301-0.016c2.592-0.019 2.547-0.011 2.884-0.435 0.147-0.183 0.164-0.243 0.164-0.564 0-0.447-0.164-0.732-0.52-0.904-0.227-0.111-0.299-0.113-2.527-0.113h-2.292l-0.059-0.584c-0.045-0.46-0.091-0.656-0.216-0.92-0.543-1.143-1.929-1.755-3.299-1.456zM23.777 2.68c0.097 0.059 0.2 0.165 0.227 0.237 0.027 0.071 0.049 0.833 0.049 1.692 0 1.523-0.003 1.567-0.116 1.709-0.232 0.296-0.732 0.38-1.147 0.192-0.112-0.048-0.206-0.119-0.279-0.208l-0.001-0.001c-0.037-0.071-0.057-0.679-0.057-1.76v-1.652l0.164-0.137c0.152-0.129 0.215-0.155 0.503-0.208 0.036-0.004 0.077-0.007 0.119-0.007 0.198 0 0.384 0.053 0.544 0.145l-0.005-0.003zM8.015 8.236c-0.764 0.185-1.485 0.74-1.805 1.388-0.165 0.335-0.201 0.479-0.252 0.983l-0.059 0.591-4.707 0.029-0.227 0.151c-0.553 0.365-0.568 1.204-0.029 1.616l0.203 0.153 4.763 0.029 0.053 0.583c0.045 0.501 0.079 0.635 0.245 0.972 0.452 0.911 1.433 1.485 2.541 1.488 0.977 0.001 1.823-0.389 2.347-1.087 0.327-0.432 0.441-0.779 0.473-1.412l0.025-0.545 19.275-0.028 0.201-0.153c0.54-0.412 0.525-1.251-0.028-1.616l-0.227-0.151-19.235-0.028v-0.412c-0.003-1.057-0.517-1.867-1.483-2.333-0.404-0.184-0.876-0.291-1.373-0.291-0.249 0-0.492 0.027-0.726 0.078l0.022-0.004zM9.073 10.188c0.107 0.029 0.256 0.116 0.333 0.193l0.14 0.14v1.648c0 1.848 0.003 1.835-0.377 1.987-0.391 0.156-0.869 0.069-1.095-0.199l-0.132-0.157 0.015-1.645c0.016-1.587 0.020-1.649 0.128-1.756 0.125-0.127 0.461-0.26 0.661-0.263 0.073-0.001 0.22 0.023 0.327 0.052zM22.453 15.864c-0.867 0.244-1.584 0.847-1.869 1.571-0.083 0.211-0.125 0.459-0.144 0.845l-0.027 0.547h-9.569c-9.284 0-9.575 0.003-9.767 0.101-0.216 0.096-0.382 0.274-0.46 0.493l-0.002 0.006c-0.152 0.364-0.052 0.879 0.219 1.117 0.303 0.269-0.227 0.256 10.044 0.256h9.548v0.413c0.003 0.94 0.383 1.64 1.177 2.164 0.859 0.565 2.127 0.62 3.047 0.132 0.493-0.263 0.917-0.684 1.14-1.133 0.165-0.335 0.201-0.479 0.252-0.984l0.059-0.592h2.284c2.417 0 2.501-0.008 2.78-0.256 0.271-0.239 0.371-0.753 0.219-1.117-0.080-0.225-0.245-0.403-0.456-0.497l-0.005-0.002c-0.185-0.095-0.347-0.101-2.515-0.101h-2.315l-0.039-0.515c-0.021-0.293-0.069-0.565-0.144-0.827l0.007 0.028c-0.26-0.755-1.025-1.417-1.899-1.643-0.391-0.1-1.22-0.104-1.565-0.007zM23.663 17.864c0.403 0.183 0.397 0.155 0.38 2.001l-0.016 1.637-0.148 0.127c-0.344 0.296-0.913 0.303-1.241 0.015l-0.184-0.161v-1.665c0-1.625 0.003-1.667 0.115-1.787 0.255-0.275 0.707-0.344 1.095-0.167zM7.947 23.491c-0.441 0.13-0.823 0.345-1.143 0.627l0.003-0.003c-0.583 0.519-0.797 0.973-0.861 1.824l-0.039 0.515h-2.327c-2.612 0-2.528-0.012-2.859 0.397-0.144 0.177-0.161 0.239-0.161 0.559 0 0.447 0.164 0.732 0.52 0.904 0.227 0.111 0.299 0.113 2.527 0.113h2.292l0.059 0.584c0.044 0.457 0.092 0.657 0.216 0.92 0.743 1.573 3.033 2.044 4.429 0.911 0.683-0.555 0.969-1.144 0.971-2.001v-0.413h19.113l0.233-0.113c0.356-0.172 0.52-0.457 0.52-0.904 0-0.32-0.017-0.381-0.161-0.559-0.098-0.117-0.212-0.216-0.339-0.295l-0.006-0.003c-0.179-0.095-0.536-0.099-9.772-0.099h-9.588v-0.416c0-0.788-0.257-1.4-0.792-1.879-0.335-0.303-0.744-0.531-1.195-0.656l-0.021-0.005c-0.392-0.101-1.272-0.104-1.619-0.007zM9.209 25.489c0.112 0.048 0.206 0.119 0.279 0.208l0.001 0.001c0.037 0.071 0.057 0.676 0.057 1.755v1.647l-0.147 0.137c-0.399 0.372-1.237 0.284-1.401-0.148-0.029-0.077-0.052-0.813-0.052-1.699 0-1.521 0.003-1.567 0.116-1.709 0.232-0.296 0.732-0.379 1.147-0.192z"></path>
    </symbol>
    <symbol id="icon-close" viewBox="0 0 32 32">
      <path d="M7.469 6.6c-0.329 0.116-0.757 0.554-0.872 0.891-0.054 0.153-0.086 0.33-0.086 0.514 0 0.181 0.030 0.355 0.086 0.517l-0.003-0.011c0.079 0.239 0.415 0.592 3.693 3.877l3.606 3.613-3.606 3.613c-3.278 3.285-3.614 3.638-3.693 3.877-0.191 0.581-0.064 1.126 0.364 1.553 0.427 0.428 0.972 0.555 1.553 0.364 0.239-0.079 0.592-0.415 3.877-3.693l3.613-3.606 3.613 3.606c3.285 3.278 3.638 3.614 3.877 3.693 0.581 0.191 1.126 0.064 1.553-0.364 0.428-0.427 0.555-0.972 0.364-1.553-0.079-0.239-0.415-0.592-3.693-3.877l-3.606-3.613 3.606-3.613c3.278-3.285 3.614-3.638 3.693-3.877 0.191-0.581 0.064-1.126-0.364-1.553-0.427-0.428-0.972-0.555-1.553-0.364-0.239 0.079-0.592 0.415-3.877 3.693l-3.613 3.606-3.613-3.606c-3.285-3.278-3.638-3.614-3.877-3.693-0.153-0.050-0.329-0.079-0.512-0.079-0.19 0-0.372 0.031-0.542 0.088l0.012-0.003z"></path>
    </symbol>
  </defs>
</svg>
